<?xml version="1.0" standalone="no"?>
<!DOCTYPE svg PUBLIC "-//W3C//DTD SVG 20010904//EN"
 "http://www.w3.org/TR/2001/REC-SVG-20010904/DTD/svg10.dtd">
<svg version="1.0" xmlns="http://www.w3.org/2000/svg"
 width="688.000000pt" height="688.000000pt" viewBox="0 0 688.000000 688.000000"
 preserveAspectRatio="xMidYMid meet">
<metadata>
Created by potrace 1.11, written by Peter Selinger 2001-2013
</metadata>
<g transform="translate(0.000000,688.000000) scale(0.100000,-0.100000)"
fill="#000000" stroke="none">
<path d="M1890 6172 c-48 -24 -74 -64 -73 -111 2 -78 57 -131 135 -131 85 0
145 108 104 188 -31 60 -106 85 -166 54z"/>
<path d="M2553 6169 c-119 -59 -74 -239 59 -239 46 0 96 34 115 77 47 113 -65
217 -174 162z"/>
<path d="M3425 6181 c-73 -21 -115 -114 -80 -181 50 -96 195 -89 233 12 38
100 -51 197 -153 169z"/>
<path d="M4265 6177 c-39 -13 -73 -54 -81 -95 -14 -74 50 -152 125 -152 40 0
94 29 110 59 59 109 -38 228 -154 188z"/>
<path d="M4925 6175 c-51 -27 -68 -54 -73 -110 -4 -49 -2 -56 30 -90 80 -87
219 -37 220 80 2 70 -40 117 -112 130 -23 4 -45 0 -65 -10z"/>
<path d="M2220 5744 c-111 -33 -174 -116 -174 -234 0 -98 49 -175 139 -216
118 -55 256 -7 318 111 30 57 29 156 -2 215 -54 104 -172 156 -281 124z"/>
<path d="M3016 5748 c-101 -22 -184 -117 -187 -215 -2 -53 11 -123 22 -123 6
0 8 -4 5 -9 -10 -15 69 -90 118 -110 132 -57 283 12 322 148 31 105 -5 214
-91 273 -35 23 -60 31 -135 43 -8 1 -33 -2 -54 -7z"/>
<path d="M3781 5741 c-69 -24 -99 -47 -136 -106 -26 -42 -30 -58 -30 -119 0
-150 99 -247 245 -242 75 3 116 21 167 74 47 48 65 93 65 161 1 95 -49 177
-134 219 -62 30 -114 34 -177 13z"/>
<path d="M4595 5750 c-68 -15 -117 -46 -161 -102 -39 -49 -49 -150 -23 -221
21 -58 48 -89 105 -123 188 -111 414 72 349 281 -36 113 -160 189 -270 165z"/>
<path d="M1489 5523 c-33 -5 -72 -40 -88 -79 -45 -113 82 -218 187 -154 33 20
62 71 62 109 0 42 -33 91 -75 111 -23 11 -46 19 -51 19 -5 -1 -20 -4 -35 -6z"/>
<path d="M5344 5510 c-46 -23 -65 -50 -70 -99 -7 -72 53 -141 124 -141 96 0
158 97 117 183 -32 67 -102 91 -171 57z"/>
<path d="M2640 5155 c-103 -21 -181 -78 -224 -164 -24 -46 -47 -144 -40 -165
1 -6 6 -29 9 -50 12 -87 87 -179 181 -223 119 -56 263 -30 359 64 74 74 107
197 82 311 -16 72 -89 161 -167 202 -48 26 -140 38 -200 25z"/>
<path d="M3417 5159 c-113 -17 -217 -99 -256 -203 -35 -92 -18 -227 39 -300
69 -89 150 -129 260 -130 62 -1 85 4 135 27 67 31 123 88 157 156 30 64 34
177 7 247 -52 136 -200 224 -342 203z"/>
<path d="M4136 5150 c-114 -36 -188 -110 -220 -220 -56 -197 88 -397 291 -405
184 -7 324 121 337 309 3 39 -24 136 -48 175 -53 83 -141 141 -226 148 -25 2
-52 5 -61 7 -9 2 -41 -5 -73 -14z"/>
<path d="M1825 5046 c-117 -43 -176 -127 -171 -243 9 -211 264 -309 411 -157
49 50 68 97 67 170 0 97 -47 170 -136 216 -45 23 -128 30 -171 14z"/>
<path d="M4965 5048 c-40 -10 -103 -50 -118 -74 -4 -7 -14 -20 -22 -28 -21
-21 -43 -114 -38 -160 19 -168 212 -267 357 -182 107 63 143 161 110 298 -9
38 -82 113 -129 133 -51 21 -109 25 -160 13z"/>
<path d="M1044 4855 c-87 -37 -102 -164 -27 -219 86 -63 209 1 205 107 -4 91
-95 148 -178 112z"/>
<path d="M5774 4853 c-75 -38 -95 -100 -58 -178 45 -95 197 -81 231 21 35 107
-76 208 -173 157z"/>
<path d="M2307 4454 c-2 -2 -19 -4 -38 -5 -50 -3 -146 -53 -185 -96 -80 -89
-105 -192 -75 -303 54 -197 268 -294 448 -204 198 100 239 364 81 516 -24 23
-62 50 -86 60 -40 18 -138 39 -145 32z"/>
<path d="M4566 4448 c-163 -19 -279 -149 -280 -312 -1 -147 94 -272 233 -311
66 -18 106 -18 169 0 101 30 164 84 208 180 63 137 16 304 -109 389 -73 49
-135 64 -221 54z"/>
<path d="M1447 4353 c-3 -2 -11 -6 -19 -7 -18 -3 -69 -32 -95 -54 -68 -59 -91
-202 -45 -289 93 -177 353 -168 434 16 53 118 -1 260 -121 318 -33 15 -143 27
-154 16z"/>
<path d="M5331 4340 c-127 -50 -189 -199 -133 -322 57 -125 204 -178 329 -117
58 28 76 48 110 118 64 133 -12 292 -157 329 -55 14 -100 12 -149 -8z"/>
<path d="M614 4190 c-45 -22 -62 -45 -70 -94 -17 -107 109 -185 199 -123 130
89 13 287 -129 217z"/>
<path d="M6204 4200 c-33 -13 -73 -61 -80 -96 -14 -75 50 -154 126 -154 76 0
140 77 126 152 -14 74 -101 124 -172 98z"/>
<path d="M1830 3724 c-35 -13 -66 -28 -68 -33 -2 -6 -8 -11 -14 -11 -14 0 -76
-68 -95 -104 -36 -68 -44 -132 -30 -227 5 -33 30 -89 39 -89 5 0 8 -6 8 -13 0
-15 61 -75 101 -99 78 -48 210 -57 290 -19 90 42 168 134 186 219 14 61 4 150
-21 204 -75 158 -235 227 -396 172z"/>
<path d="M4950 3742 c-14 -2 -41 -8 -60 -15 -19 -6 -38 -11 -42 -12 -20 -1
-93 -67 -122 -110 -70 -101 -79 -215 -26 -322 101 -204 370 -241 527 -72 44
48 77 138 77 214 0 187 -173 342 -354 317z"/>
<path d="M1040 3651 c-172 -56 -227 -268 -105 -398 94 -100 236 -103 343 -9
25 22 60 84 68 120 23 100 -25 211 -113 263 -47 27 -146 40 -193 24z"/>
<path d="M5727 3646 c-56 -21 -103 -63 -133 -120 -23 -41 -29 -128 -14 -181
15 -53 76 -121 130 -147 82 -39 186 -24 257 36 128 110 108 313 -38 396 -51
28 -148 36 -202 16z"/>
<path d="M191 3534 c-47 -20 -69 -49 -76 -99 -6 -35 -2 -49 18 -82 81 -127
272 -39 229 106 -10 31 -22 46 -56 66 -49 29 -67 30 -115 9z"/>
<path d="M6630 3534 c-46 -19 -71 -55 -75 -107 -4 -52 16 -92 58 -117 83 -51
183 1 194 101 11 91 -90 161 -177 123z"/>
<path d="M2288 3035 c-2 -2 -18 -5 -36 -8 -50 -8 -117 -44 -161 -88 -172 -173
-103 -449 134 -534 33 -12 135 -14 169 -3 68 22 103 43 152 94 188 192 60 517
-212 538 -24 2 -45 2 -46 1z"/>
<path d="M4553 3029 c-229 -41 -340 -295 -217 -491 32 -50 115 -115 167 -130
161 -46 316 22 388 168 45 93 45 185 0 277 -62 127 -202 200 -338 176z"/>
<path d="M1446 2955 c-70 -18 -126 -62 -159 -125 -25 -48 -28 -63 -24 -120 4
-72 20 -109 66 -157 39 -41 84 -64 127 -66 19 -1 34 -5 34 -8 0 -4 23 -2 51 3
162 29 248 201 176 348 -14 30 -74 93 -102 108 -41 21 -120 29 -169 17z"/>
<path d="M5408 2965 c-2 -2 -16 -5 -33 -8 -132 -22 -219 -155 -192 -291 16
-78 105 -167 183 -183 151 -30 293 83 294 235 0 89 -49 176 -121 212 -35 19
-124 42 -131 35z"/>
<path d="M617 2872 c-46 -18 -76 -67 -73 -120 4 -77 63 -127 140 -120 128 13
156 191 38 241 -44 18 -58 18 -105 -1z"/>
<path d="M6200 2877 c-14 -5 -37 -25 -52 -44 -46 -59 -24 -154 44 -189 82 -42
188 25 188 118 0 83 -97 145 -180 115z"/>
<path d="M2641 2318 c-63 -11 -122 -43 -169 -90 -157 -158 -108 -422 95 -515
165 -76 368 9 431 180 24 63 22 173 -3 232 -60 139 -206 219 -354 193z"/>
<path d="M3366 2310 c-280 -95 -303 -470 -37 -597 79 -38 183 -38 261 0 131
63 199 179 187 320 -9 106 -63 192 -155 246 -79 46 -176 58 -256 31z"/>
<path d="M4164 2321 c-3 -3 -14 -6 -25 -8 -56 -8 -137 -67 -180 -129 -49 -72
-66 -167 -46 -264 14 -68 92 -164 162 -199 57 -29 86 -35 161 -34 137 1 274
113 299 243 11 63 12 72 4 120 -20 126 -109 227 -229 261 -44 12 -137 18 -146
10z"/>
<path d="M1835 2255 c-122 -36 -186 -123 -181 -242 6 -138 112 -234 252 -229
136 5 237 120 228 259 -4 78 -65 165 -136 197 -57 25 -114 30 -163 15z"/>
<path d="M4962 2254 c-112 -33 -183 -132 -175 -245 11 -157 158 -261 311 -218
61 17 142 96 160 155 24 83 4 178 -52 241 -56 63 -160 92 -244 67z"/>
<path d="M1040 2212 c-46 -23 -72 -62 -72 -106 0 -83 46 -131 127 -131 62 0
99 25 118 80 38 111 -70 209 -173 157z"/>
<path d="M5787 2220 c-40 -12 -58 -29 -77 -73 -48 -106 66 -213 172 -163 87
42 96 168 15 221 -31 20 -76 26 -110 15z"/>
<path d="M1445 1542 c-86 -62 -60 -203 42 -228 67 -17 146 33 159 102 10 56
-26 123 -76 139 -48 17 -89 12 -125 -13z"/>
<path d="M2213 1555 c-103 -31 -174 -131 -168 -236 8 -131 96 -224 220 -233
189 -15 318 177 235 348 -49 102 -175 155 -287 121z"/>
<path d="M3008 1560 c-32 -9 -108 -51 -108 -59 0 -4 -11 -18 -25 -33 -30 -32
-54 -118 -48 -168 6 -45 41 -120 67 -144 60 -54 99 -70 171 -70 84 0 136 23
187 84 104 121 59 315 -87 376 -46 19 -118 25 -157 14z"/>
<path d="M3797 1558 c-10 -5 -17 -6 -17 -3 0 3 -17 -3 -37 -14 -81 -41 -132
-127 -133 -222 0 -31 3 -59 8 -63 4 -4 7 -11 7 -14 1 -4 8 -20 17 -37 57 -105
197 -151 306 -100 190 88 196 341 9 437 -45 22 -133 32 -160 16z"/>
<path d="M4559 1554 c-27 -8 -61 -29 -85 -53 -48 -48 -67 -71 -58 -71 3 0 2
-6 -5 -13 -18 -23 -21 -117 -4 -166 54 -159 245 -218 377 -117 85 65 117 195
70 292 -26 55 -83 111 -123 121 -14 3 -30 8 -36 12 -18 11 -90 8 -136 -5z"/>
<path d="M5365 1563 c-23 -6 -62 -40 -77 -66 -28 -54 -10 -127 41 -164 58 -43
152 -19 186 48 20 38 14 109 -10 134 -47 46 -90 61 -140 48z"/>
<path d="M1889 892 c-91 -47 -98 -163 -14 -221 74 -50 178 -4 195 86 18 102
-89 182 -181 135z"/>
<path d="M2553 893 c-90 -44 -90 -183 0 -228 62 -31 140 -7 170 52 31 60 3
153 -52 175 -39 16 -87 17 -118 1z"/>
<path d="M3400 892 c-59 -34 -83 -102 -57 -164 42 -100 192 -101 233 -3 18 44
18 69 -1 109 -29 60 -119 90 -175 58z"/>
<path d="M4275 903 c-35 -9 -63 -34 -79 -68 -20 -42 -20 -68 1 -112 32 -68
115 -93 180 -53 101 61 69 217 -48 233 -19 3 -43 3 -54 0z"/>
<path d="M4911 889 c-38 -23 -61 -67 -61 -119 0 -56 48 -109 106 -117 138 -18
204 158 88 234 -36 23 -96 24 -133 2z"/>
</g>
</svg>
